<?xml version="1.0" encoding="UTF-8" standalone="no"?>
<!DOCTYPE svg PUBLIC "-//W3C//DTD SVG 1.1//EN"
"http://www.w3.org/Graphics/SVG/1.1/DTD/svg11.dtd">


<!-- Page 1 -->
<svg x="0" y="0" width="763" height="458" version="1.1" xmlns="http://www.w3.org/2000/svg" xmlns:xlink="http://www.w3.org/1999/xlink"
style="display: block;margin-left: auto;margin-right: auto;">
<defs>

<style type="text/css"><![CDATA[

.g1_1{
fill: none;
stroke: #333333;
stroke-width: 19;
stroke-linecap: round;
stroke-linejoin: miter;
stroke-miterlimit: 3;
}


]]></style>

</defs>
<path d="M0,0
L0,458
L763,458
L763,0 Z " 
fill="#FFFFFF" stroke="none" />
<path d="M347.5,319.4c-0.4,-0.1,-0.8,-0.2,-1.2,-0.4c-2.5,0,-5.2,0.1,-7.8,0.4m-2,0C315.7,318.9,298,312.8,283.5,301C268.2,288.6,260.6,273.8,260.6,256.4l0,-178.3c23.8,-0.1,44.3,10.6,61.5,32.1c15.8,20.1,24.1,44.1,25.2,71.9c-0.1,1.7,0,47.5,0.2,137.3c1.4,25.8,13.8,44.8,37.3,56.9c13.6,7,28.1,10.3,43.4,10c23.2,-0.8,46.6,-1.4,70.3,-1.6l14.7,0C511.7,359,502,340.8,484,330.3c-13.7,-8.2,-32.5,-11.9,-56.1,-11.1l-78.7,0.2" class="g1_1" />

<title>free_logo_3 Page1</title>
</svg>
